<svg width="657.9px" height="121.4px" xmlns="http://www.w3.org/2000/svg" viewBox="-78.96247558593751 14.297509765625001 657.924951171875 121.40498046875" style="background: rgba(0, 0, 0, 0)" preserveAspectRatio="xMidYMid"><defs><linearGradient id="editing-outline-gradient" x1="-0.41354545764260087" x2="1.4135454576426008" y1="0.09326335692419985" y2="0.9067366430758002"><stop offset="0" stop-color="#ee4208"></stop><stop offset="1" stop-color="#4139ff"></stop></linearGradient><filter id="editing-outline" x="-100%" y="-100%" width="300%" height="300%"><feMorphology in="SourceGraphic" operator="dilate" radius="3" result="outline"></feMorphology><feComposite operator="out" in="outline" in2="SourceAlpha"></feComposite></filter></defs><g filter="url(#editing-outline)"><g transform="matrix(1.3,0,0,1.2,-44.3,131.1)"><path d="M -2.5 -24.2 L -16.4 -24.2 L -8.3 -66.4 L 5.8 -66.4 L -2.5 -24.2 Z M 53.3 -22.9 L 53.3 -22.9 L 53.3 -22.9 Q 45.5 -22.9 45.5 -28.9 L 45.5 -28.9 L 45.5 -28.9 Q 45.5 -31.6 46.7 -36.6 L 46.7 -36.6 L 46.7 -36.6 Q 47.8 -41.7 48.2 -43.8 L 48.2 -43.8 L 48.2 -43.8 Q 49.1 -48.5 49.1 -49.9 L 49.1 -49.9 L 49.1 -49.9 Q 49.1 -53.2 46.6 -53.2 L 46.6 -53.2 L 46.6 -53.2 Q 45 -53.2 43.5 -51 L 43.5 -51 L 43.5 -51 Q 42 -48.8 41.2 -44.4 L 41.2 -44.4 L 37.3 -24.2 L 24.8 -22.9 L 28.3 -40.3 L 28.3 -40.3 Q 28.8 -43.2 29.3 -46.5 L 29.3 -46.5 L 29.3 -46.5 Q 29.9 -49.7 29.9 -50.3 L 29.9 -50.3 L 29.9 -50.3 Q 29.9 -53.2 27.7 -53.2 L 27.7 -53.2 L 27.7 -53.2 Q 26.2 -53.2 24.6 -51 L 24.6 -51 L 24.6 -51 Q 23 -48.8 22.1 -44.4 L 22.1 -44.4 L 18.2 -24.2 L 5.6 -22.9 L 12.3 -56.8 L 22.7 -58.1 L 21.7 -51.7 L 21.7 -51.7 Q 23.3 -55.1 26.4 -56.6 L 26.4 -56.6 L 26.4 -56.6 Q 29.5 -58.1 34.3 -58.1 L 34.3 -58.1 L 34.3 -58.1 Q 37 -58.1 38.8 -56.8 L 38.8 -56.8 L 38.8 -56.8 Q 40.6 -55.4 41.2 -53.3 L 41.2 -53.3 L 41.2 -53.3 Q 42.3 -55.5 45.1 -56.8 L 45.1 -56.8 L 45.1 -56.8 Q 47.8 -58.1 51.3 -58.1 L 51.3 -58.1 L 51.3 -58.1 Q 54.7 -58.1 56.4 -57.4 L 56.4 -57.4 L 56.4 -57.4 Q 58.1 -56.7 59.1 -55.4 L 59.1 -55.4 L 59.1 -55.4 Q 60.8 -53.2 60.8 -49.1 L 60.8 -49.1 L 60.8 -49.1 Q 60.8 -45.1 59.1 -36.7 L 59.1 -36.7 L 59.1 -36.7 Q 58.2 -32.6 58.2 -31.1 L 58.2 -31.1 L 58.2 -31.1 Q 58.2 -29.6 59.1 -28.7 L 59.1 -28.7 L 59.1 -28.7 Q 59.9 -27.8 61.2 -27.7 L 61.2 -27.7 L 61.2 -27.7 Q 60.6 -25.5 58.4 -24.2 L 58.4 -24.2 L 58.4 -24.2 Q 56.2 -22.9 53.3 -22.9 Z M 68.9 -26.1 L 68.9 -26.1 L 68.9 -26.1 Q 67.4 -27.8 66.7 -30.4 L 66.7 -30.4 L 66.7 -30.4 Q 66.1 -33 66.1 -37.3 L 66.1 -37.3 L 66.1 -37.3 Q 66.1 -41.6 67.5 -45.5 L 67.5 -45.5 L 67.5 -45.5 Q 69 -49.4 71.7 -52.2 L 71.7 -52.2 L 71.7 -52.2 Q 77.2 -58.1 86.3 -58.1 L 86.3 -58.1 L 86.3 -58.1 Q 89.6 -58.1 91.9 -57 L 91.9 -57 L 102.9 -58.1 L 98.1 -33.2 L 98.1 -33.2 Q 98 -32.4 98 -31 L 98 -31 L 98 -31 Q 98 -29.6 98.8 -28.7 L 98.8 -28.7 L 98.8 -28.7 Q 99.7 -27.8 101 -27.7 L 101 -27.7 L 101 -27.7 Q 100.3 -25.5 98 -24.2 L 98 -24.2 L 98 -24.2 Q 95.7 -22.9 93 -22.9 L 93 -22.9 L 93 -22.9 Q 90.4 -22.9 88.6 -23.9 L 88.6 -23.9 L 88.6 -23.9 Q 86.9 -24.9 86.4 -26.6 L 86.4 -26.6 L 86.4 -26.6 Q 85.3 -25 83.2 -23.9 L 83.2 -23.9 L 83.2 -23.9 Q 81 -22.9 78.1 -22.9 L 78.1 -22.9 L 78.1 -22.9 Q 75.2 -22.9 72.8 -23.7 L 72.8 -23.7 L 72.8 -23.7 Q 70.4 -24.5 68.9 -26.1 Z M 82.4 -52.1 L 82.4 -52.1 L 82.4 -52.1 Q 81.7 -51 81.1 -49 L 81.1 -49 L 81.1 -49 Q 80.4 -47.1 79.4 -41.8 L 79.4 -41.8 L 79.4 -41.8 Q 78.3 -36.6 78.3 -32.9 L 78.3 -32.9 L 78.3 -32.9 Q 78.3 -29.2 78.9 -28.1 L 78.9 -28.1 L 78.9 -28.1 Q 79.5 -27 80.5 -27 L 80.5 -27 L 80.5 -27 Q 82.5 -27 84 -29 L 84 -29 L 84 -29 Q 85.5 -30.9 86.1 -34.4 L 86.1 -34.4 L 89.5 -53.1 L 89.5 -53.1 Q 88.2 -54.3 86.6 -54.3 L 86.6 -54.3 L 86.6 -54.3 Q 85 -54.3 84.1 -53.8 L 84.1 -53.8 L 84.1 -53.8 Q 83.2 -53.3 82.4 -52.1 Z M 110.6 -51 L 110.6 -51 L 110.6 -51 Q 112.8 -54 116.1 -56.1 L 116.1 -56.1 L 116.1 -56.1 Q 119.4 -58.1 123.4 -58.1 L 123.4 -58.1 L 123.4 -58.1 Q 127.5 -58.1 129.4 -56.8 L 129.4 -56.8 L 141.9 -58.1 L 137.6 -33.5 L 137.6 -33.5 Q 135.3 -21 130.6 -16.1 L 130.6 -16.1 L 130.6 -16.1 Q 126 -11.4 117.2 -11.4 L 117.2 -11.4 L 117.2 -11.4 Q 110.5 -11.4 106.7 -13.5 L 106.7 -13.5 L 106.7 -13.5 Q 102.8 -15.6 102.8 -19.1 L 102.8 -19.1 L 102.8 -19.1 Q 102.8 -21.8 104.8 -23.3 L 104.8 -23.3 L 104.8 -23.3 Q 106.8 -24.8 109.9 -24.8 L 109.9 -24.8 L 109.9 -24.8 Q 112.5 -24.8 114.6 -23.6 L 114.6 -23.6 L 114.6 -23.6 Q 115.8 -22.9 116.4 -22 L 116.4 -22 L 116.4 -22 Q 114.9 -20.7 114.9 -18.6 L 114.9 -18.6 L 114.9 -18.6 Q 114.9 -15.9 117.5 -15.9 L 117.5 -15.9 L 117.5 -15.9 Q 121.8 -15.9 124.2 -26 L 124.2 -26 L 124.2 -26 Q 124.9 -28.7 125.5 -31.5 L 125.5 -31.5 L 125.5 -31.5 Q 122.6 -28 116.1 -28 L 116.1 -28 L 116.1 -28 Q 111.5 -28 108.9 -30.2 L 108.9 -30.2 L 108.9 -30.2 Q 106.3 -32.3 106.3 -37.5 L 106.3 -37.5 L 106.3 -37.5 Q 106.3 -40.6 107.4 -44.3 L 107.4 -44.3 L 107.4 -44.3 Q 108.5 -47.9 110.6 -51 Z M 118.9 -37.3 L 118.9 -37.3 L 118.9 -37.3 Q 118.9 -32.9 121.2 -32.9 L 121.2 -32.9 L 121.2 -32.9 Q 122.7 -32.9 124.2 -34.6 L 124.2 -34.6 L 124.2 -34.6 Q 125.3 -35.9 125.8 -37.9 L 125.8 -37.9 L 129.1 -54.3 L 129.1 -54.3 Q 128.7 -54.4 128.4 -54.5 L 128.4 -54.5 L 128.4 -54.5 Q 127.8 -54.8 126.9 -54.8 L 126.9 -54.8 L 126.9 -54.8 Q 123 -54.8 120.7 -48.4 L 120.7 -48.4 L 120.7 -48.4 Q 118.9 -43.4 118.9 -37.3 Z M 170.3 -35 L 170.3 -35 L 170.3 -35 Q 171.9 -33.9 171.9 -31.5 L 171.9 -31.5 L 171.9 -31.5 Q 171.9 -29.1 170.7 -27.6 L 170.7 -27.6 L 170.7 -27.6 Q 169.5 -26.1 167.5 -25 L 167.5 -25 L 167.5 -25 Q 163.4 -22.9 159 -22.9 L 159 -22.9 L 159 -22.9 Q 154.6 -22.9 152 -23.9 L 152 -23.9 L 152 -23.9 Q 149.4 -24.8 147.7 -26.6 L 147.7 -26.6 L 147.7 -26.6 Q 144.3 -30 144.3 -36.2 L 144.3 -36.2 L 144.3 -36.2 Q 144.3 -45.9 149.5 -51.8 L 149.5 -51.8 L 149.5 -51.8 Q 155.2 -58.1 165 -58.1 L 165 -58.1 L 165 -58.1 Q 171 -58.1 174 -55.6 L 174 -55.6 L 174 -55.6 Q 176.3 -53.6 176.3 -50.5 L 176.3 -50.5 L 176.3 -50.5 Q 176.3 -39.2 156.8 -39.2 L 156.8 -39.2 L 156.8 -39.2 Q 156.6 -37.6 156.6 -36.2 L 156.6 -36.2 L 156.6 -36.2 Q 156.6 -33.2 157.9 -32.1 L 157.9 -32.1 L 157.9 -32.1 Q 159.2 -31 161.6 -31 L 161.6 -31 L 161.6 -31 Q 164.1 -31 166.7 -32.1 L 166.7 -32.1 L 166.7 -32.1 Q 169.3 -33.2 170.3 -35 Z M 157.3 -42 L 157.3 -42 L 157.3 -42 Q 161.8 -42 164.5 -44.8 L 164.5 -44.8 L 164.5 -44.8 Q 167.1 -47.5 167.1 -51.8 L 167.1 -51.8 L 167.1 -51.8 Q 167.1 -53.3 166.5 -54.1 L 166.5 -54.1 L 166.5 -54.1 Q 166 -54.9 164.9 -54.9 L 164.9 -54.9 L 164.9 -54.9 Q 163.8 -54.9 162.9 -54.4 L 162.9 -54.4 L 162.9 -54.4 Q 162 -54 161 -52.6 L 161 -52.6 L 161 -52.6 Q 158.6 -49.4 157.3 -42 Z M 197.6 -46.7 L 197.6 -46.7 L 197.6 -46.7 Q 198.5 -49 198.5 -51.1 L 198.5 -51.1 L 198.5 -51.1 Q 198.5 -54.9 195.4 -54.9 L 195.4 -54.9 L 195.4 -54.9 Q 193.8 -54.9 192.5 -53.4 L 192.5 -53.4 L 192.5 -53.4 Q 191.2 -52 191.2 -50.2 L 191.2 -50.2 L 191.2 -50.2 Q 191.2 -48.9 192.2 -47.9 L 192.2 -47.9 L 192.2 -47.9 Q 193.7 -46.5 197.5 -44.2 L 197.5 -44.2 L 197.5 -44.2 Q 201.3 -41.9 202.7 -40 L 202.7 -40 L 202.7 -40 Q 204.1 -38.1 204.1 -35.5 L 204.1 -35.5 L 204.1 -35.5 Q 204.1 -32.9 202.9 -30.5 L 202.9 -30.5 L 202.9 -30.5 Q 201.6 -28.2 199.4 -26.5 L 199.4 -26.5 L 199.4 -26.5 Q 194.6 -22.9 186.9 -22.9 L 186.9 -22.9 L 186.9 -22.9 Q 182.8 -22.9 179.5 -25.1 L 179.5 -25.1 L 179.5 -25.1 Q 176.4 -27.2 176.4 -29.7 L 176.4 -29.7 L 176.4 -29.7 Q 176.4 -32.2 178.2 -33.7 L 178.2 -33.7 L 178.2 -33.7 Q 180 -35.1 182.7 -35.1 L 182.7 -35.1 L 182.7 -35.1 Q 185.4 -35.1 187 -34.1 L 187 -34.1 L 187 -34.1 Q 186.2 -32 186.2 -30.6 L 186.2 -30.6 L 186.2 -30.6 Q 186.2 -26.4 189.8 -26.4 L 189.8 -26.4 L 189.8 -26.4 Q 191.3 -26.4 192.4 -27.3 L 192.4 -27.3 L 192.4 -27.3 Q 193.4 -28.3 193.4 -30 L 193.4 -30 L 193.4 -30 Q 193.4 -33.2 187.9 -36.7 L 187.9 -36.7 L 187.9 -36.7 Q 183.4 -39.6 182.4 -40.8 L 182.4 -40.8 L 182.4 -40.8 Q 180.6 -42.8 180.6 -45.4 L 180.6 -45.4 L 180.6 -45.4 Q 180.6 -47.9 181.9 -50.4 L 181.9 -50.4 L 181.9 -50.4 Q 183.1 -52.8 185.3 -54.5 L 185.3 -54.5 L 185.3 -54.5 Q 190 -58.1 198.1 -58.1 L 198.1 -58.1 L 198.1 -58.1 Q 202.3 -58.1 204.7 -56.5 L 204.7 -56.5 L 204.7 -56.5 Q 207.2 -54.8 207.2 -52 L 207.2 -52 L 207.2 -52 Q 207.2 -49.2 205.5 -47.6 L 205.5 -47.6 L 205.5 -47.6 Q 203.8 -46 200.7 -46 L 200.7 -46 L 200.7 -46 Q 198.6 -46 197.6 -46.7 Z M 248.7 -44.8 L 261.6 -46 L 261.6 -46 Q 257 -35.9 257 -24.1 L 257 -24.1 L 257 -24.1 Q 255.3 -22.9 252.7 -22.9 L 252.7 -22.9 L 252.7 -22.9 Q 250.2 -22.9 248.6 -24.1 L 248.6 -24.1 L 248.6 -24.1 Q 247 -25.3 246.7 -26.5 L 246.7 -26.5 L 246.7 -26.5 Q 245.1 -24.8 242.5 -23.9 L 242.5 -23.9 L 242.5 -23.9 Q 239.9 -22.9 237.1 -22.9 L 237.1 -22.9 L 237.1 -22.9 Q 234.4 -22.9 232 -23.8 L 232 -23.8 L 232 -23.8 Q 229.6 -24.7 227.7 -26.7 L 227.7 -26.7 L 227.7 -26.7 Q 223.6 -31 223.6 -39.3 L 223.6 -39.3 L 223.6 -39.3 Q 223.6 -52.1 230.5 -59.8 L 230.5 -59.8 L 230.5 -59.8 Q 237.5 -67.7 250 -67.7 L 250 -67.7 L 250 -67.7 Q 258.7 -67.7 261.7 -63.2 L 261.7 -63.2 L 261.7 -63.2 Q 262.7 -61.8 262.7 -60.1 L 262.7 -60.1 L 262.7 -60.1 Q 262.7 -58.4 262 -57 L 262 -57 L 262 -57 Q 261.2 -55.6 260.1 -54.4 L 260.1 -54.4 L 260.1 -54.4 Q 257.3 -51.8 253.9 -51.8 L 253.9 -51.8 L 253.9 -51.8 Q 252.6 -51.8 251.3 -52.3 L 251.3 -52.3 L 251.3 -52.3 Q 251.6 -54.2 251.6 -56.5 L 251.6 -56.5 L 251.6 -56.5 Q 251.6 -58.7 251.4 -59.7 L 251.4 -59.7 L 251.4 -59.7 Q 251.2 -60.7 250.8 -61.6 L 250.8 -61.6 L 250.8 -61.6 Q 250 -63.3 248.2 -63.3 L 248.2 -63.3 L 248.2 -63.3 Q 246.4 -63.3 244.3 -61.3 L 244.3 -61.3 L 244.3 -61.3 Q 242.3 -59.4 240.7 -56.2 L 240.7 -56.2 L 240.7 -56.2 Q 237.2 -49 237.2 -40.4 L 237.2 -40.4 L 237.2 -40.4 Q 237.2 -36.4 238.8 -33.6 L 238.8 -33.6 L 238.8 -33.6 Q 240.4 -30.5 243.4 -30.5 L 243.4 -30.5 L 243.4 -30.5 Q 244.4 -30.5 245.3 -31 L 245.3 -31 L 245.3 -31 Q 246.2 -31.6 246.6 -31.9 L 246.6 -31.9 L 248.7 -44.8 Z M 267.5 -26.1 L 267.5 -26.1 L 267.5 -26.1 Q 266 -27.8 265.3 -30.4 L 265.3 -30.4 L 265.3 -30.4 Q 264.7 -33 264.7 -37.3 L 264.7 -37.3 L 264.7 -37.3 Q 264.7 -41.6 266.1 -45.5 L 266.1 -45.5 L 266.1 -45.5 Q 267.6 -49.4 270.3 -52.2 L 270.3 -52.2 L 270.3 -52.2 Q 275.8 -58.1 284.9 -58.1 L 284.9 -58.1 L 284.9 -58.1 Q 288.2 -58.1 290.5 -57 L 290.5 -57 L 301.5 -58.1 L 296.7 -33.2 L 296.7 -33.2 Q 296.5 -32.4 296.5 -31 L 296.5 -31 L 296.5 -31 Q 296.5 -29.6 297.4 -28.7 L 297.4 -28.7 L 297.4 -28.7 Q 298.3 -27.8 299.6 -27.7 L 299.6 -27.7 L 299.6 -27.7 Q 298.9 -25.5 296.6 -24.2 L 296.6 -24.2 L 296.6 -24.2 Q 294.2 -22.9 291.6 -22.9 L 291.6 -22.9 L 291.6 -22.9 Q 289 -22.9 287.2 -23.9 L 287.2 -23.9 L 287.2 -23.9 Q 285.5 -24.9 285 -26.6 L 285 -26.6 L 285 -26.6 Q 283.9 -25 281.8 -23.9 L 281.8 -23.9 L 281.8 -23.9 Q 279.6 -22.9 276.7 -22.9 L 276.7 -22.9 L 276.7 -22.9 Q 273.8 -22.9 271.4 -23.7 L 271.4 -23.7 L 271.4 -23.7 Q 269 -24.5 267.5 -26.1 Z M 281 -52.1 L 281 -52.1 L 281 -52.1 Q 280.3 -51 279.6 -49 L 279.6 -49 L 279.6 -49 Q 279 -47.1 278 -41.8 L 278 -41.8 L 278 -41.8 Q 276.9 -36.6 276.9 -32.9 L 276.9 -32.9 L 276.9 -32.9 Q 276.9 -29.2 277.5 -28.1 L 277.5 -28.1 L 277.5 -28.1 Q 278.1 -27 279.1 -27 L 279.1 -27 L 279.1 -27 Q 281.1 -27 282.6 -29 L 282.6 -29 L 282.6 -29 Q 284.1 -30.9 284.7 -34.4 L 284.7 -34.4 L 288.1 -53.1 L 288.1 -53.1 Q 286.8 -54.3 285.2 -54.3 L 285.2 -54.3 L 285.2 -54.3 Q 283.6 -54.3 282.7 -53.8 L 282.7 -53.8 L 282.7 -53.8 Q 281.8 -53.3 281 -52.1 Z M 320.2 -27.7 L 320.2 -27.7 L 320.2 -27.7 Q 318.2 -22.9 311.9 -22.9 L 311.9 -22.9 L 311.9 -22.9 Q 308.7 -22.9 306.7 -25.2 L 306.7 -25.2 L 306.7 -25.2 Q 305 -27 305 -29.1 L 305 -29.1 L 305 -29.1 Q 305 -33.9 307.2 -44.4 L 307.2 -44.4 L 311.9 -69 L 324.9 -70.3 L 318.7 -37.9 L 318.7 -37.9 Q 317.6 -33.2 317.6 -31.5 L 317.6 -31.5 L 317.6 -31.5 Q 317.6 -27.8 320.2 -27.7 Z M 341 -27.7 L 341 -27.7 L 341 -27.7 Q 339 -22.9 332.6 -22.9 L 332.6 -22.9 L 332.6 -22.9 Q 329.4 -22.9 327.4 -25.2 L 327.4 -25.2 L 327.4 -25.2 Q 325.7 -27 325.7 -29.1 L 325.7 -29.1 L 325.7 -29.1 Q 325.7 -33.9 328 -44.4 L 328 -44.4 L 332.6 -69 L 345.6 -70.3 L 339.4 -37.9 L 339.4 -37.9 Q 338.3 -33.2 338.3 -31.5 L 338.3 -31.5 L 338.3 -31.5 Q 338.3 -27.8 341 -27.7 Z M 372.3 -35 L 372.3 -35 L 372.3 -35 Q 373.9 -33.9 373.9 -31.5 L 373.9 -31.5 L 373.9 -31.5 Q 373.9 -29.1 372.7 -27.6 L 372.7 -27.6 L 372.7 -27.6 Q 371.5 -26.1 369.5 -25 L 369.5 -25 L 369.5 -25 Q 365.4 -22.9 361 -22.9 L 361 -22.9 L 361 -22.9 Q 356.6 -22.9 354 -23.9 L 354 -23.9 L 354 -23.9 Q 351.4 -24.8 349.7 -26.6 L 349.7 -26.6 L 349.7 -26.6 Q 346.3 -30 346.3 -36.2 L 346.3 -36.2 L 346.3 -36.2 Q 346.3 -45.9 351.5 -51.8 L 351.5 -51.8 L 351.5 -51.8 Q 357.1 -58.1 366.9 -58.1 L 366.9 -58.1 L 366.9 -58.1 Q 373 -58.1 376 -55.6 L 376 -55.6 L 376 -55.6 Q 378.3 -53.6 378.3 -50.5 L 378.3 -50.5 L 378.3 -50.5 Q 378.3 -39.2 358.8 -39.2 L 358.8 -39.2 L 358.8 -39.2 Q 358.6 -37.6 358.6 -36.2 L 358.6 -36.2 L 358.6 -36.2 Q 358.6 -33.2 359.9 -32.1 L 359.9 -32.1 L 359.9 -32.1 Q 361.2 -31 363.6 -31 L 363.6 -31 L 363.6 -31 Q 366.1 -31 368.6 -32.1 L 368.6 -32.1 L 368.6 -32.1 Q 371.2 -33.2 372.3 -35 Z M 359.3 -42 L 359.3 -42 L 359.3 -42 Q 363.8 -42 366.4 -44.8 L 366.4 -44.8 L 366.4 -44.8 Q 369.1 -47.5 369.1 -51.8 L 369.1 -51.8 L 369.1 -51.8 Q 369.1 -53.3 368.5 -54.1 L 368.5 -54.1 L 368.5 -54.1 Q 368 -54.9 366.9 -54.9 L 366.9 -54.9 L 366.9 -54.9 Q 365.8 -54.9 364.9 -54.4 L 364.9 -54.4 L 364.9 -54.4 Q 363.9 -54 363 -52.6 L 363 -52.6 L 363 -52.6 Q 360.6 -49.4 359.3 -42 Z M 400.5 -42.2 L 400.5 -42.2 L 400.5 -42.2 Q 402.8 -46.3 402.8 -50.4 L 402.8 -50.4 L 402.8 -50.4 Q 402.8 -53.2 400.8 -53.2 L 400.8 -53.2 L 400.8 -53.2 Q 399.3 -53.2 397.7 -50.6 L 397.7 -50.6 L 397.7 -50.6 Q 396 -47.9 395.5 -44.6 L 395.5 -44.6 L 392.2 -24.2 L 378.9 -22.9 L 385.4 -56.8 L 396 -58.1 L 394.8 -51.7 L 394.8 -51.7 Q 398 -58.1 405 -58.1 L 405 -58.1 L 405 -58.1 Q 408.7 -58.1 410.8 -56.2 L 410.8 -56.2 L 410.8 -56.2 Q 412.8 -54.3 412.8 -50.3 L 412.8 -50.3 L 412.8 -50.3 Q 412.8 -46.4 410.2 -43.9 L 410.2 -43.9 L 410.2 -43.9 Q 407.6 -41.4 403.2 -41.4 L 403.2 -41.4 L 403.2 -41.4 Q 401.3 -41.4 400.5 -42.2 Z M 434.1 -31.4 L 434.1 -31.4 L 434.1 -31.4 Q 430.8 -28 424.7 -28 L 424.7 -28 L 424.7 -28 Q 417.1 -28 415.5 -33.5 L 415.5 -33.5 L 415.5 -33.5 Q 415 -35.2 415 -37.1 L 415 -37.1 L 415 -37.1 Q 415 -38.9 415.4 -40.8 L 415.4 -40.8 L 418.4 -56.8 L 431.4 -58.1 L 427.9 -39.5 L 427.9 -39.5 Q 427.7 -38.7 427.6 -37.8 L 427.6 -37.8 L 427.6 -37.8 Q 427.4 -36.9 427.4 -35.9 L 427.4 -35.9 L 427.4 -35.9 Q 427.4 -35 427.7 -34.4 L 427.7 -34.4 L 427.7 -34.4 Q 428 -33.8 428.5 -33.4 L 428.5 -33.4 L 428.5 -33.4 Q 429.2 -32.9 430.6 -32.9 L 430.6 -32.9 L 430.6 -32.9 Q 432 -32.9 433.1 -34.6 L 433.1 -34.6 L 433.1 -34.6 Q 434.3 -36.2 434.9 -39.1 L 434.9 -39.1 L 438.4 -56.8 L 451 -58.1 L 446.2 -33 L 446.2 -33 Q 443.9 -20.7 439 -15.8 L 439 -15.8 L 439 -15.8 Q 436.5 -13.3 433.3 -12.3 L 433.3 -12.3 L 433.3 -12.3 Q 430.1 -11.3 425.9 -11.3 L 425.9 -11.3 L 425.9 -11.3 Q 419.2 -11.3 415.3 -13.4 L 415.3 -13.4 L 415.3 -13.4 Q 411.5 -15.6 411.5 -19.1 L 411.5 -19.1 L 411.5 -19.1 Q 411.5 -21.7 413.5 -23.2 L 413.5 -23.2 L 413.5 -23.2 Q 415.5 -24.7 418.5 -24.7 L 418.5 -24.7 L 418.5 -24.7 Q 421.2 -24.7 423.3 -23.6 L 423.3 -23.6 L 423.3 -23.6 Q 424.5 -22.9 425.1 -22 L 425.1 -22 L 425.1 -22 Q 423.6 -20.7 423.6 -18.6 L 423.6 -18.6 L 423.6 -18.6 Q 423.6 -15.8 426.1 -15.8 L 426.1 -15.8 L 426.1 -15.8 Q 430.4 -15.8 432.8 -25.5 L 432.8 -25.5 L 432.8 -25.5 Q 433.5 -28.4 434.1 -31.4 Z" fill="url(#editing-outline-gradient)"></path></g></g><style>text {
  font-size: 64px;
  font-family: Arial Black;
  dominant-baseline: central;
  text-anchor: middle;
}</style></svg>
